<svg aria-hidden="true" style="position: absolute; width: 0; height: 0; overflow: hidden;" version="1.1" xmlns="http://www.w3.org/2000/svg" xmlns:xlink="http://www.w3.org/1999/xlink">
<defs>
<symbol id="icon-zoom_in" viewBox="0 0 24 24">
<path d="M12 9.984h-2.016v2.016h-0.984v-2.016h-2.016v-0.984h2.016v-2.016h0.984v2.016h2.016v0.984zM9.516 14.016q1.875 0 3.188-1.313t1.313-3.188-1.313-3.188-3.188-1.313-3.188 1.313-1.313 3.188 1.313 3.188 3.188 1.313zM15.516 14.016l4.969 4.969-1.5 1.5-4.969-4.969v-0.797l-0.281-0.281q-1.781 1.547-4.219 1.547-2.719 0-4.617-1.875t-1.898-4.594 1.898-4.617 4.617-1.898 4.594 1.898 1.875 4.617q0 0.984-0.469 2.227t-1.078 1.992l0.281 0.281h0.797z"></path>
</symbol>
<symbol id="icon-bookmark" viewBox="0 0 20 20">
<path d="M14 2v17l-4-4-4 4v-17c0-0.553 0.585-1.020 1-1h6c0.689-0.020 1 0.447 1 1z"></path>
</symbol>
<symbol id="icon-chevron-thin-right" viewBox="0 0 20 20">
<path d="M13.25 10l-7.141-7.42c-0.268-0.27-0.268-0.707 0-0.979 0.268-0.27 0.701-0.27 0.969 0l7.83 7.908c0.268 0.271 0.268 0.709 0 0.979l-7.83 7.908c-0.268 0.271-0.701 0.27-0.969 0s-0.268-0.707 0-0.979l7.141-7.417z"></path>
</symbol>
<symbol id="icon-aircraft-take-off" viewBox="0 0 20 20">
<path d="M19.87 6.453c0.119 0.257 0.127 1.29-4.884 3.642l-4.913 2.306c-1.71 0.803-4.191 1.859-5.285 2.151-0.766 0.204-1.497-0.316-1.497-0.316s-2.206-1.975-2.792-2.419c-0.585-0.444-0.535-0.67 0.215-0.91 0.467-0.149 3.13 0.493 4.265 0.78 1.339-0.8 2.562-1.486 3.141-1.798-1.396-1.033-4.008-2.962-4.841-3.55-0.799-0.565 0.010-0.768 0.010-0.768 0.368-0.099 1.162-0.228 1.562-0.144 2.721 0.569 7.263 2.071 7.611 2.186 0.832-0.436 2.128-1.092 2.922-1.465 2.075-0.974 4.327-0.037 4.486 0.305z"></path>
</symbol>
<symbol id="icon-awareness-ribbon" viewBox="0 0 20 20">
<path d="M16.574 16.338c-0.757-1.051-2.851-3.824-4.57-6.106 0.696-0.999 1.251-1.815 1.505-2.242 1.545-2.594 0.874-4.26 0.022-5.67-0.854-1.411-0.989-2.226-3.531-2.226-2.543 0-2.678 0.815-3.531 2.227-0.854 1.41-1.524 3.076 0.021 5.67 0.254 0.426 0.809 1.243 1.506 2.242-1.72 2.281-3.814 5.055-4.571 6.106-0.176 0.244-0.16 0.664 0.009 1.082 0.13 0.322 0.63 1.762 0.752 2.064 0.156 0.389 0.664 0.67 1.082 0.092 0.241-0.334 2.582-3.525 4.732-6.522 2.149 2.996 4.491 6.188 4.732 6.522 0.417 0.578 0.926 0.297 1.082-0.092 0.122-0.303 0.622-1.742 0.752-2.064 0.167-0.419 0.184-0.839 0.008-1.083zM9.634 7.063c-1.068-1.484-1.832-3.211-1.832-3.211s0.42-0.758 2.198-0.758c1.778 0 2.198 0.758 2.198 0.758s-0.766 1.727-1.833 3.211c-0.088 0.121-0.218 0.297-0.365 0.497-0.149-0.2-0.279-0.376-0.366-0.497z"></path>
</symbol>
<symbol id="icon-chat" viewBox="0 0 20 20">
<path d="M5.8 12.2v-6.2h-3.8c-1.1 0-2 0.9-2 2v6c0 1.1 0.9 2 2 2h1v3l3-3h5c1.1 0 2-0.9 2-2v-1.82c-0.064 0.014-0.132 0.021-0.2 0.021l-7-0.001zM18 1h-9c-1.1 0-2 0.9-2 2v8h7l3 3v-3h1c1.1 0 2-0.899 2-2v-6c0-1.1-0.9-2-2-2z"></path>
</symbol>
<symbol id="icon-database" viewBox="0 0 20 20">
<path d="M16.726 12.641c-0.843 1.363-3.535 2.361-6.726 2.361s-5.883-0.998-6.727-2.361c-0.178-0.29-0.273-0.135-0.273 0.007 0 0.144 0 2.002 0 2.002 0 1.94 3.134 3.95 7 3.95s7-2.010 7-3.949c0 0 0-1.858 0-2.002s-0.096-0.298-0.274-0.008zM16.737 7.525c-0.83 1.205-3.532 2.090-6.737 2.090s-5.908-0.885-6.738-2.090c-0.171-0.248-0.262-0.113-0.262-0.002 0 0.113 0 2.357 0 2.357 0 1.762 3.134 3.189 7 3.189s7-1.428 7-3.189c0 0 0-2.244 0-2.357 0-0.111-0.092-0.246-0.263 0.002zM10 1c-3.866 0-7 1.18-7 2.633v1.26c0 1.541 3.134 2.791 7 2.791s7-1.25 7-2.791v-1.26c0-1.453-3.134-2.633-7-2.633z"></path>
</symbol>
<symbol id="icon-home" viewBox="0 0 20 20">
<path d="M18.672 11h-1.672v6c0 0.445-0.194 1-1 1h-4v-6h-4v6h-4c-0.806 0-1-0.555-1-1v-6h-1.672c-0.598 0-0.47-0.324-0.060-0.748l8.024-8.032c0.195-0.202 0.451-0.302 0.708-0.312 0.257 0.010 0.513 0.109 0.708 0.312l8.023 8.031c0.411 0.425 0.539 0.749-0.059 0.749z"></path>
</symbol>
<symbol id="icon-key" viewBox="0 0 20 20">
<path d="M17.691 4.725c-0.503-2.977-3.22-4.967-6.069-4.441s-5.256 2.816-4.753 5.795c0.107 0.641 0.408 1.644 0.763 2.365l-5.175 7.723c-0.191 0.285-0.299 0.799-0.242 1.141l0.333 1.971c0.058 0.342 0.372 0.572 0.7 0.514l1.516-0.281c0.328-0.059 0.744-0.348 0.924-0.639l2.047-3.311 0.018-0.022 1.386-0.256 2.39-3.879c0.785 0.139 1.912 0.092 2.578-0.031 2.848-0.526 4.087-3.67 3.584-6.649zM15.166 6.252c-0.784 1.17-1.584 0.346-2.703-0.475-1.119-0.818-2.135-1.322-1.352-2.492s2.326-1.455 3.447-0.635c1.12 0.819 1.391 2.432 0.608 3.602z"></path>
</symbol>
<symbol id="icon-location-pin" viewBox="0 0 20 20">
<path d="M10 2.009c-2.762 0-5 2.229-5 4.99 0 4.774 5 11 5 11s5-6.227 5-11c0-2.76-2.238-4.99-5-4.99zM10 9.76c-1.492 0-2.7-1.209-2.7-2.7s1.208-2.7 2.7-2.7c1.49 0 2.699 1.209 2.699 2.7s-1.209 2.7-2.699 2.7z"></path>
</symbol>
<symbol id="icon-magnifying-glass" viewBox="0 0 20 20">
<path d="M17.545 15.467l-3.779-3.779c0.57-0.935 0.898-2.035 0.898-3.21 0-3.417-2.961-6.377-6.378-6.377s-6.186 2.769-6.186 6.186c0 3.416 2.961 6.377 6.377 6.377 1.137 0 2.2-0.309 3.115-0.844l3.799 3.801c0.372 0.371 0.975 0.371 1.346 0l0.943-0.943c0.371-0.371 0.236-0.84-0.135-1.211zM4.004 8.287c0-2.366 1.917-4.283 4.282-4.283s4.474 2.107 4.474 4.474c0 2.365-1.918 4.283-4.283 4.283s-4.473-2.109-4.473-4.474z"></path>
</symbol>
<symbol id="icon-map" viewBox="0 0 20 20">
<path d="M19.447 3.718l-6-3c-0.281-0.141-0.613-0.141-0.895 0l-5.63 2.815-5.606-1.869c-0.306-0.102-0.64-0.051-0.901 0.138s-0.415 0.49-0.415 0.811v13.001c0 0.379 0.214 0.725 0.553 0.894l6 3c0.141 0.070 0.294 0.106 0.447 0.106s0.307-0.035 0.447-0.106l5.63-2.814 5.606 1.869c0.305 0.1 0.64 0.049 0.901-0.139s0.415-0.49 0.415-0.81v-13.002c0.001-0.379-0.213-0.725-0.552-0.894zM8 5.231l4-2v11.763l-4 2v-11.763zM2 4l4 1.333v11.661l-4-2v-10.994zM18 16.227l-4-1.334v-11.662l4 2v10.996z"></path>
</symbol>
<symbol id="icon-star" viewBox="0 0 20 20">
<path d="M10 1.3l2.388 6.722h6.412l-5.232 3.948 1.871 6.928-5.439-4.154-5.438 4.154 1.87-6.928-5.233-3.948h6.412l2.389-6.722z"></path>
</symbol>
<symbol id="icon-stopwatch" viewBox="0 0 20 20">
<path d="M7.376 6.745c-0.447 0.275 1.197 4.242 1.598 4.888 0.35 0.569 1.093 0.742 1.658 0.394 0.568-0.352 0.745-1.094 0.395-1.66-0.397-0.648-3.205-3.898-3.651-3.622zM7.041 2.402c0.928-0.323 1.922-0.502 2.959-0.502s2.031 0.179 2.959 0.502c0.329 0.114 0.765-0.115 0.572-0.611-0.141-0.36-0.277-0.712-0.332-0.855-0.131-0.339-0.6-0.619-0.804-0.665-0.772-0.174-1.572-0.271-2.395-0.271s-1.623 0.097-2.396 0.271c-0.204 0.046-0.672 0.326-0.803 0.665-0.055 0.143-0.192 0.495-0.332 0.855-0.193 0.496 0.243 0.726 0.572 0.611zM19.098 3.186c-0.192-0.23-0.396-0.455-0.613-0.672-0.216-0.217-0.441-0.42-0.67-0.613-0.153-0.129-0.603-0.234-0.888 0.051s-1.648 1.647-1.648 1.647c0.402 0.288 0.793 0.605 1.155 0.966s0.677 0.752 0.966 1.155c0 0 1.363-1.362 1.647-1.647 0.286-0.286 0.181-0.735 0.051-0.887zM10 2.9c-4.475 0-8.101 3.626-8.101 8.1s3.626 8.101 8.101 8.101c4.473 0 8.1-3.626 8.1-8.101 0-4.473-3.627-8.1-8.1-8.1zM10 17.101c-3.368 0-6.1-2.731-6.1-6.1s2.731-6.1 6.1-6.1c3.369 0 6.101 2.731 6.101 6.1s-2.732 6.1-6.101 6.1z"></path>
</symbol>
<symbol id="icon-user" viewBox="0 0 20 20">
<path d="M7.725 2.146c-1.016 0.756-1.289 1.953-1.239 2.59 0.064 0.779 0.222 1.793 0.222 1.793s-0.313 0.17-0.313 0.854c0.109 1.717 0.683 0.976 0.801 1.729 0.284 1.814 0.933 1.491 0.933 2.481 0 1.649-0.68 2.42-2.803 3.334-2.13 0.918-4.326 2.073-4.326 4.073v1h18v-1c0-2-2.197-3.155-4.328-4.072-2.123-0.914-2.801-1.684-2.801-3.334 0-0.99 0.647-0.667 0.932-2.481 0.119-0.753 0.692-0.012 0.803-1.729 0-0.684-0.314-0.854-0.314-0.854s0.158-1.014 0.221-1.793c0.065-0.817-0.398-2.561-2.3-3.096-0.333-0.34-0.558-0.881 0.466-1.424-2.24-0.105-2.761 1.067-3.954 1.929z"></path>
</symbol>
<symbol id="icon-bookmark1" viewBox="0 0 20 20">
<path d="M2 2c0-1.1 0.9-2 2-2h12c1.105 0 2 0.895 2 2v0 18l-8-4-8 4v-18z"></path>
</symbol>
<symbol id="icon-search" viewBox="0 0 32 32">
<path d="M20 0.005c-6.627 0-12 5.373-12 12 0 2.026 0.507 3.933 1.395 5.608l-8.344 8.342 0.007 0.006c-0.652 0.641-1.058 1.529-1.058 2.516 0 1.949 1.58 3.529 3.529 3.529 0.985 0 1.874-0.406 2.515-1.059l-0.002-0.002 8.341-8.34c1.676 0.891 3.586 1.4 5.617 1.4 6.627 0 12-5.373 12-12s-5.373-12-12-12zM4.795 29.697c-0.322 0.334-0.768 0.543-1.266 0.543-0.975 0-1.765-0.789-1.765-1.764 0-0.498 0.21-0.943 0.543-1.266l-0.009-0.008 8.066-8.066c0.705 0.951 1.545 1.791 2.494 2.498l-8.063 8.063zM20 22.006c-5.522 0-10-4.479-10-10s4.478-10 10-10c5.521 0 10 4.478 10 10s-4.479 10-10 10zM20 5.005c0.275 0 0.5 0.224 0.5 0.5s-0.225 0.5-0.5 0.5c-3.314 0-6 2.687-6 6 0 0.276-0.224 0.5-0.5 0.5s-0.5-0.224-0.5-0.5c0-3.866 3.133-7 7-7z"></path>
</symbol>
<symbol id="icon-key1" viewBox="0 0 32 32">
<path d="M18.532 19.468l-4.532 4.532h-3v3h-3v3h-5v-5l10.532-10.532c-0.344-0.924-0.532-1.924-0.532-2.968 0-4.694 3.806-8.5 8.5-8.5s8.5 3.806 8.5 8.5c0 4.694-3.806 8.5-8.5 8.5-1.044 0-2.044-0.188-2.968-0.532v0 0zM27 9c0-1.657-1.343-3-3-3s-3 1.343-3 3c0 1.657 1.343 3 3 3s3-1.343 3-3v0z"></path>
</symbol>
<symbol id="icon-medal" viewBox="0 0 32 32">
<path d="M19 1h-5v14.374c0.79-0.243 1.63-0.374 2.5-0.374s1.71 0.131 2.5 0.374v-14.374zM20 1h4v13l-1.247 3.742c-0.77-0.835-1.704-1.516-2.753-1.99v-14.752zM13 1h-4v13l1.247 3.742c0.77-0.835 1.704-1.516 2.753-1.99v-14.752zM16.5 31c4.142 0 7.5-3.358 7.5-7.5s-3.358-7.5-7.5-7.5c-4.142 0-7.5 3.358-7.5 7.5s3.358 7.5 7.5 7.5v0zM16.5 25.923l-2.769 2.077 0.769-3.462-2.5-2.538h3.5l1-3 1 3h3.5l-2.5 2.538 1 3.462-3-2.077z"></path>
</symbol>
<symbol id="icon-css3" viewBox="0 0 32 32">
<path fill="#1572b6" style="fill: var(--color1, #1572b6)" d="M2 0h28l-2.547 28.751-11.484 3.249-11.42-3.251zM24.787 5.884l-17.573-0.004 0.284 3.496 13.5 0.003-0.34 3.621h-8.853l0.32 3.431h8.243l-0.488 4.697-3.88 1.072-3.941-1.080-0.251-2.813h-3.48l0.387 5.14 7.287 2.271 7.164-2.040z"></path>
</symbol>
<symbol id="icon-csswizardry" viewBox="0 0 32 32">
<path fill="#f43059" style="fill: var(--color2, #f43059)" d="M0.040 21.904v-20.413c0-0.824 0.667-1.491 1.489-1.491h28.871c0.832 0 1.493 0.667 1.493 1.493v19.68c-0.893-0.547-1.947-0.821-3.143-0.821-1.672 0-2.94 0.4-3.805 1.195-0.867 0.797-1.293 1.771-1.293 2.967 0 1.293 0.44 2.253 1.333 2.867 0.52 0.38 1.48 0.72 2.853 1.016l1.4 0.32c0.84 0.177 1.427 0.4 1.813 0.613 0.373 0.244 0.573 0.583 0.573 1.020 0 0.755-0.387 1.273-1.16 1.531l-0.040 0.021h-2.947c-0.383-0.139-0.68-0.339-0.92-0.6-0.24-0.299-0.4-0.733-0.48-1.351h-2.64c0 0.755 0.137 1.393 0.44 1.973h-2.24c0.253-0.52 0.4-1.097 0.4-1.756 0-1.173-0.4-2.067-1.181-2.688-0.499-0.396-1.253-0.713-2.251-0.956l-2.293-0.536c-0.88-0.187-1.453-0.373-1.733-0.533-0.413-0.24-0.613-0.6-0.613-1.053 0-0.507 0.213-0.907 0.627-1.187 0.44-0.28 1-0.413 1.72-0.413 0.653 0 1.173 0.12 1.613 0.347 0.659 0.341 1 0.92 1.053 1.716h2.667c-0.040-1.395-0.553-2.471-1.533-3.205-0.992-0.733-2.167-1.113-3.56-1.113-1.673 0-2.927 0.4-3.804 1.173-0.853 0.777-1.293 1.773-1.293 2.947 0 1.293 0.44 2.251 1.333 2.867 0.536 0.36 1.493 0.697 2.867 1.013l1.393 0.32c0.813 0.18 1.413 0.38 1.813 0.62 0.373 0.24 0.573 0.573 0.573 1.013 0 0.76-0.4 1.253-1.173 1.533h-2.987c-0.379-0.141-0.693-0.341-0.92-0.62-0.24-0.293-0.413-0.752-0.493-1.352h-2.689c0 0.744 0.14 1.4 0.427 1.973h-2.787c0.44-0.693 0.737-1.493 0.884-2.387h-2.737c-0.187 0.68-0.416 1.197-0.7 1.533-0.347 0.44-0.8 0.72-1.36 0.86h-1.636c-0.6-0.14-1.116-0.477-1.533-1.013-0.619-0.744-0.917-1.859-0.917-3.333 0-1.493 0.307-2.627 0.88-3.44 0.6-0.817 1.373-1.213 2.387-1.213 1 0 1.733 0.28 2.253 0.859 0.28 0.32 0.52 0.8 0.693 1.435h2.773c-0.040-0.824-0.347-1.653-0.915-2.48-1.029-1.467-2.659-2.2-4.885-2.2-1.547 0-2.845 0.48-3.88 1.413zM31.899 26.752v-2.072h-0.688c-0.047-0.796-0.4-1.363-1.044-1.699-0.417-0.219-0.956-0.331-1.591-0.331-0.72 0-1.273 0.147-1.693 0.429-0.416 0.287-0.637 0.691-0.637 1.203 0 0.473 0.221 0.827 0.636 1.060 0.293 0.14 0.867 0.339 1.747 0.539l2.293 0.547c0.4 0.080 0.747 0.2 1.067 0.307z"></path>
</symbol>
<symbol id="icon-facebook" viewBox="0 0 32 32">
<path fill="#1877f2" style="fill: var(--color3, #1877f2)" d="M31.997 15.999c0-8.836-7.163-15.999-15.999-15.999s-15.999 7.163-15.999 15.999c0 7.985 5.851 14.604 13.499 15.804v-11.18h-4.062v-4.625h4.062v-3.525c0-4.010 2.389-6.225 6.043-6.225 1.75 0 3.581 0.313 3.581 0.313v3.937h-2.017c-1.987 0-2.607 1.233-2.607 2.498v3.001h4.437l-0.709 4.625h-3.728v11.18c7.649-1.2 13.499-7.819 13.499-15.804z"></path>
</symbol>
<symbol id="icon-indeed" viewBox="0 0 32 32">
<path fill="#2164f3" style="fill: var(--color4, #2164f3)" d="M19.763 13.744c-0.534 0.28-1.166 0.444-1.837 0.444-2.222 0-4.024-1.802-4.024-4.024s1.802-4.024 4.024-4.024c1.565 0 2.921 0.893 3.587 2.197l0.011 0.023c0.273 0.527 0.432 1.15 0.432 1.811 0 1.551-0.881 2.896-2.17 3.563l-0.022 0.011zM15.467 0.763c3.293-1.201 7.059-1.136 9.877 1.309 0.586 0.485 1.050 1.097 1.352 1.796l0.012 0.031c0.284 0.92-0.999-0.093-1.173-0.224-0.826-0.572-1.772-1.065-2.779-1.432l-0.087-0.028c-5.552-1.7-10.805 1.395-14.051 6.207-1.245 1.966-2.269 4.237-2.953 6.651l-0.044 0.183c-0.068 0.324-0.166 0.61-0.294 0.88l0.010-0.024c-0.143 0.272-0.065-0.729-0.065-0.763 0.136-1.137 0.337-2.15 0.608-3.133l-0.035 0.148c1.504-5.244 4.836-9.611 9.623-11.601zM15.516 28.753v-11.684c0.332 0.033 0.648 0.049 0.981 0.049 0.008 0 0.017 0 0.026 0 1.577 0 3.050-0.444 4.302-1.214l-0.036 0.020v12.827c0 1.096-0.2 1.907-0.693 2.435-0.459 0.502-1.116 0.815-1.846 0.815-0.032 0-0.063-0.001-0.094-0.002l0.005 0c-0.026 0.001-0.056 0.002-0.087 0.002-0.721 0-1.368-0.313-1.814-0.811l-0.002-0.002c-0.491-0.539-0.747-1.351-0.741-2.435z"></path>
</symbol>
<symbol id="icon-instagram" viewBox="0 0 32 32">
<path fill="#e4405f" style="fill: var(--color5, #e4405f)" d="M16 0c-4.347 0-4.889 0.020-6.596 0.096-1.704 0.080-2.864 0.348-3.884 0.744-1.052 0.408-1.945 0.956-2.835 1.845s-1.439 1.781-1.845 2.835c-0.396 1.020-0.665 2.18-0.744 3.884-0.080 1.707-0.096 2.249-0.096 6.596s0.020 4.889 0.096 6.596c0.080 1.703 0.348 2.864 0.744 3.884 0.408 1.051 0.956 1.945 1.845 2.835 0.889 0.888 1.781 1.439 2.835 1.845 1.021 0.395 2.181 0.665 3.884 0.744 1.707 0.080 2.249 0.096 6.596 0.096s4.889-0.020 6.596-0.096c1.703-0.080 2.864-0.349 3.884-0.744 1.051-0.408 1.945-0.957 2.835-1.845 0.888-0.889 1.439-1.78 1.845-2.835 0.395-1.020 0.665-2.181 0.744-3.884 0.080-1.707 0.096-2.249 0.096-6.596s-0.020-4.889-0.096-6.596c-0.080-1.703-0.349-2.865-0.744-3.884-0.408-1.052-0.957-1.945-1.845-2.835-0.889-0.889-1.78-1.439-2.835-1.845-1.020-0.396-2.181-0.665-3.884-0.744-1.707-0.080-2.249-0.096-6.596-0.096zM16 2.88c4.271 0 4.78 0.021 6.467 0.095 1.56 0.073 2.407 0.332 2.969 0.553 0.749 0.289 1.28 0.636 1.843 1.195 0.559 0.56 0.905 1.092 1.195 1.841 0.219 0.563 0.48 1.409 0.551 2.969 0.076 1.688 0.093 2.195 0.093 6.467s-0.020 4.78-0.099 6.467c-0.081 1.56-0.341 2.407-0.561 2.969-0.299 0.749-0.639 1.28-1.199 1.843-0.559 0.559-1.099 0.905-1.84 1.195-0.56 0.219-1.42 0.48-2.98 0.551-1.699 0.076-2.199 0.093-6.479 0.093-4.281 0-4.781-0.020-6.479-0.099-1.561-0.081-2.421-0.341-2.981-0.561-0.759-0.299-1.28-0.639-1.839-1.199-0.561-0.559-0.92-1.099-1.2-1.84-0.22-0.56-0.479-1.42-0.56-2.98-0.060-1.68-0.081-2.199-0.081-6.459 0-4.261 0.021-4.781 0.081-6.481 0.081-1.56 0.34-2.419 0.56-2.979 0.28-0.76 0.639-1.28 1.2-1.841 0.559-0.559 1.080-0.919 1.839-1.197 0.56-0.221 1.401-0.481 2.961-0.561 1.7-0.060 2.2-0.080 6.479-0.080zM16 7.784c-4.54 0-8.216 3.68-8.216 8.216 0 4.54 3.68 8.216 8.216 8.216 4.54 0 8.216-3.68 8.216-8.216 0-4.54-3.68-8.216-8.216-8.216zM16 21.333c-2.947 0-5.333-2.387-5.333-5.333s2.387-5.333 5.333-5.333 5.333 2.387 5.333 5.333-2.387 5.333-5.333 5.333zM26.461 7.46c0 1.060-0.861 1.92-1.92 1.92-1.060 0-1.92-0.861-1.92-1.92s0.861-1.919 1.92-1.919c1.057-0.001 1.92 0.86 1.92 1.919z"></path>
</symbol>
<symbol id="icon-invision" viewBox="0 0 32 32">
<path fill="#f36" style="fill: var(--color6, #f36)" d="M29.1 0h-26.2c-1.6 0-2.9 1.3-2.9 2.9v26.2c0 1.6 1.3 2.9 2.9 2.9h26.2c1.6 0 2.9-1.3 2.9-2.9v-26.2c0-1.6-1.3-2.9-2.9-2.9zM10.693 6.223c1.064 0 1.957 0.84 1.957 1.92 0 1.093-0.893 1.925-1.957 1.925v0.036c-1.071 0-1.939-0.867-1.939-1.94s0.867-1.94 1.939-1.941zM23.781 24.643c-1.979 0-2.939-1.18-2.939-2.787 0-0.461 0.059-0.951 0.2-1.44l0.947-3.393c0.117-0.373 0.147-0.72 0.147-1.033 0-1.093-0.667-1.753-1.728-1.753-1.351 0-2.24 0.969-2.7 2.84l-1.84 7.38h-3.219l0.576-2.32c-0.944 1.555-2.26 2.513-3.88 2.513-1.956 0-2.876-1.123-2.876-2.817 0.005-0.487 0.063-0.973 0.173-1.447v0.003l1.467-5.987h-2.276l0.691-2.54h5.467l-2.16 8.54c-0.14 0.547-0.2 1-0.2 1.315 0 0.547 0.269 0.707 0.689 0.805 0.26 0.053 2.3 0.016 3.413-2.453l1.413-5.667h-2.297l0.693-2.5h4.96l-0.64 2.88c0.863-1.6 2.583-3.14 4.283-3.14 1.8 0 3.3 1.3 3.3 3.76 0 0.712-0.107 1.42-0.32 2.1l-0.92 3.301c-0.080 0.339-0.139 0.62-0.139 0.88 0 0.579 0.24 0.86 0.659 0.86s0.98-0.32 1.6-2.080l1.257 0.48c-0.74 2.619-2.101 3.699-3.801 3.7z"></path>
</symbol>
<symbol id="icon-linkedin" viewBox="0 0 32 32">
<path fill="#0077b5" style="fill: var(--color7, #0077b5)" d="M27.263 27.269h-4.739v-7.425c0-1.771-0.036-4.049-2.469-4.049-2.471 0-2.848 1.927-2.848 3.919v7.556h-4.739v-15.269h4.552v2.081h0.061c0.636-1.2 2.183-2.467 4.493-2.467 4.801 0 5.689 3.16 5.689 7.273zM7.116 9.911c-1.525 0-2.751-1.235-2.751-2.753 0-1.517 1.227-2.751 2.751-2.751 1.52 0 2.752 1.233 2.752 2.751 0 1.519-1.233 2.753-2.752 2.753zM9.492 27.269h-4.752v-15.269h4.752zM29.633 0h-27.272c-1.305 0-2.361 1.032-2.361 2.305v27.389c0 1.275 1.056 2.305 2.361 2.305h27.268c1.304 0 2.371-1.031 2.371-2.305v-27.389c0-1.273-1.067-2.305-2.371-2.305z"></path>
</symbol>
<symbol id="icon-mongodb" viewBox="0 0 32 32">
<path fill="#47a248" style="fill: var(--color8, #47a248)" d="M22.907 12.691c-1.684-7.413-5.656-9.849-6.083-10.781-0.469-0.657-0.977-1.909-0.977-1.909-0.003 0.025-0.005 0.041-0.007 0.065v0.017h-0.001c-0.003 0.020-0.004 0.033-0.005 0.052v0.020h-0.003c0 0.013-0.003 0.024-0.003 0.035v0.035h-0.004c-0.001 0.011-0.001 0.024-0.004 0.033v0.028h-0.003c0 0.009 0 0.020-0.003 0.028v0.027h-0.003c0 0.013-0.001 0.029-0.003 0.043v0.003c-0.004 0.023-0.008 0.045-0.012 0.067v0.011h-0.003c-0.001 0.005-0.004 0.011-0.004 0.016v0.023h-0.004v0.029h-0.007v0.024h-0.007v0.028h-0.005v0.025h-0.005v0.023h-0.008v0.019h-0.005v0.024h-0.005v0.019h-0.007v0.017h-0.004v0.020h-0.005c-0.001 0.001-0.001 0.004-0.001 0.005v0.013h-0.004c-0.001 0.003-0.001 0.005-0.001 0.008v0.008h-0.003c-0.001 0.004-0.003 0.011-0.003 0.013-0.004 0.009-0.009 0.019-0.013 0.028v0.003c-0.003 0.003-0.005 0.007-0.007 0.009v0.011h-0.005v0.011h-0.007v0.011h-0.004v0.013h-0.008v0.019h-0.005v0.005h-0.005v0.011h-0.005v0.015h-0.005v0.011h-0.008v0.015h-0.005v0.011h-0.007v0.011h-0.004v0.013h-0.007v0.011h-0.005v0.008h-0.005v0.011h-0.008v0.012h-0.005v0.008h-0.007v0.011h-0.005v0.015h-0.007v0.005h-0.004v0.011h-0.008v0.005h-0.005v0.013h-0.005v0.005h-0.005v0.011h-0.007v0.008h-0.004l-0.003 0.005v0.005h-0.003c-0.001 0.003-0.003 0.003-0.003 0.005v0.001h-0.001c-0.001 0.004-0.003 0.007-0.005 0.009v0.004h-0.001c-0.007 0.008-0.011 0.016-0.016 0.024v0.001c-0.003 0.003-0.009 0.008-0.012 0.013v0.003h-0.001c-0.001 0.001-0.004 0.003-0.004 0.004v0.004h-0.003l-0.004 0.004v0.001h-0.001c0 0.001-0.003 0.003-0.004 0.005v0.005h-0.004l-0.003 0.003v0.003h-0.003c0 0.003-0.003 0.003-0.003 0.004v0.004h-0.005c0 0.001-0.001 0.003-0.003 0.004v0.008h-0.004v0.005h-0.005v0.008h-0.005v0.011h-0.007v-0.011h-0.007v0.005h-0.005v0.008h-0.007v0.011h-0.007v0.005h-0.005v0.008h-0.005v0.005h-0.005v0.011h-0.008v0.005h-0.005v0.008h-0.007v0.005h-0.005v0.007h-0.007v0.013h-0.003v0.005h-0.008v0.007h-0.005v0.003h-0.005v0.005h-0.007v0.013h-0.005v0.005h-0.007v0.005h-0.005v0.008h-0.007v0.005h-0.007v0.005h-0.005v0.005h-0.005v0.013h-0.005v0.007h-0.008v0.005h-0.005v0.005h-0.007v0.008h-0.005v0.005h-0.007v0.009h-0.005v0.005h-0.008v0.008h-0.003v0.005h-0.005v0.005h-0.007v0.005h-0.005v0.008h-0.007v0.005h-0.004c-0.001 0.001-0.001 0.003-0.001 0.003v0.003h-0.003l-0.005 0.005c0 0-0.003 0.003-0.005 0.004v0.008h-0.005v0.007h-0.005v0.005h-0.005v0.005h-0.004l-0.004 0.004v0.004h-0.003l-0.003 0.003v0.004h-0.003c-0.007 0.008-0.009 0.013-0.019 0.021-0.003 0.003-0.011 0.009-0.016 0.013-0.016 0.011-0.036 0.028-0.052 0.043-0.011 0.007-0.021 0.016-0.029 0.023v0.001h-0.001c-0.021 0.017-0.041 0.033-0.065 0.052v0.001c-0.032 0.027-0.063 0.052-0.099 0.083v-0.001h-0.003c-0.076 0.063-0.156 0.133-0.248 0.212v0.001h-0.001c-0.225 0.197-0.493 0.451-0.793 0.757l-0.025 0.025c-1.813 1.876-4.671 5.785-4.972 12.103-0.027 0.523-0.021 1.031 0.008 1.525v0.012c0.145 2.489 0.927 4.615 1.904 6.341v0.001c0.389 0.688 0.809 1.313 1.235 1.873v0.001c1.469 1.94 2.969 3.089 3.352 3.368 0.588 1.364 0.533 3.705 0.533 3.705l0.859 0.287c0 0-0.175-2.268 0.071-3.363 0.076-0.343 0.256-0.635 0.465-0.883 0.141-0.1 0.56-0.401 1.063-0.86 0.024-0.025 0.037-0.048 0.059-0.072 2.028-1.891 5.816-6.547 4.517-14.132z"></path>
</symbol>
<symbol id="icon-mxlinux" viewBox="0 0 32 32">
<path d="M16.001 17.735l4.369 5.092-1 1.2-4.352-5.145zM32 3.213v25.576c0 0.873-0.708 1.581-1.581 1.581h-28.837c-0.873 0-1.581-0.708-1.581-1.581 0-0 0-0.001 0-0.001v0-25.576c0-0.873 0.708-1.581 1.581-1.581h28.837c0.873 0 1.581 0.707 1.581 1.583zM29.012 26l-5.641-6.777-0.781 0.939-4.333-5.051 6.551-7.64-1.567-1.344-6.347 7.399-6.324-7.369-2.596 2.227 6.667 7.769-0.973 1.135-1.653-1.953-9.025 10.667z"></path>
</symbol>
<symbol id="icon-nutanix" viewBox="0 0 32 32">
<path fill="#024da1" style="fill: var(--color9, #024da1)" d="M0.524 4.823c-0.29 0.002-0.524 0.237-0.524 0.527 0 0 0 0 0 0v0c0 0.16 0.072 0.3 0.185 0.396l11.343 9.872c0.105 0.095 0.17 0.232 0.17 0.384 0 0.16-0.072 0.303-0.186 0.399l-0.001 0.001-11.36 9.883c-0.094 0.095-0.152 0.225-0.152 0.369 0 0.289 0.235 0.524 0.524 0.524 0.001 0 0.001 0 0.002 0h6.48c0.137 0 0.26-0.053 0.353-0.139l12.227-10.64c0.111-0.097 0.181-0.239 0.181-0.398s-0.069-0.3-0.179-0.396l-0.001-0.001-12.228-10.643c-0.092-0.086-0.215-0.139-0.351-0.139-0 0-0 0-0.001 0h0zM25.003 4.823c-0.142 0-0.271 0.058-0.364 0.151l0-0-6.289 5.475c-0.115 0.097-0.188 0.241-0.188 0.402 0 0.135 0.051 0.258 0.135 0.351l-0-0 3.237 2.819c0.096 0.106 0.234 0.172 0.388 0.172v0c0.145-0.001 0.276-0.061 0.371-0.157l0-0 9.503-8.271c0.125-0.096 0.205-0.245 0.205-0.413 0 0 0 0 0 0v0c0 0 0 0 0 0 0-0.29-0.234-0.525-0.524-0.527h-0zM21.923 17.812c-0.155 0-0.293 0.067-0.389 0.173l-3.236 2.817c-0.084 0.092-0.135 0.216-0.135 0.351 0 0.161 0.073 0.304 0.187 0.4l0.001 0.001 6.289 5.472c0.093 0.093 0.221 0.151 0.364 0.151h6.473c0 0 0 0 0 0 0.289 0 0.524-0.235 0.524-0.524 0-0.169-0.080-0.319-0.204-0.415l-0.001-0.001-9.503-8.271c-0.094-0.095-0.225-0.154-0.369-0.155h-0z"></path>
</symbol>
<symbol id="icon-pinboard" viewBox="0 0 32 32">
<path fill="#00f" style="fill: var(--color10, #00f)" d="M17.803 19.447l-6.012 6.152 0.96-5.416-8.18-10.089-4.571 0.244 10.107-10.337v3.937l9.619 8.861 6.017-1.473-6.252 6.643 12.509 14.032z"></path>
</symbol>
<symbol id="icon-plex" viewBox="0 0 32 32">
<path fill="#e5a00d" style="fill: var(--color11, #e5a00d)" d="M15.524 0h-9.284l10.239 16-10.239 16h9.284l10.236-16-10.236-16z"></path>
</symbol>
<symbol id="icon-riseup" viewBox="0 0 32 32">
<path fill="#5e9ee3" style="fill: var(--color12, #5e9ee3)" d="M16.22 7.236c0 0-0.471-0.913-0.503-1.040 0.027 0.246-0.071-0.232-0.166-0.711l-0.117-0.703 0.315-0.567 0.691-1.039 1.004-0.787 0.252-0.093 2.417-0.913 0.22-0.22-0.251-0.379-0.347-0.188-0.633-0.163-1.587-0.163-1.233 0.013-0.848 0.188-0.753-0.283-0.943-0.125-1.381-0.032-0.691-0.032-1.163 0.44-1.757 2.045-0.22 0.787-0.125 0.693-0.597 1.289-0.377 1.227-0.187 1.323v0.283l-0.912 1.384-0.503 1.040v1.476l0.157 3.053 0.283 1.101 0.565 1.007 0.723 0.66 0.313 1.291 1.193 2.643 1.413 1.7 0.093 0.093 0.503 2.549-1.727 3.147-0.471 0.724-0.44 0.284-0.691-0.095-0.408 0.157-0.471-0.031-0.315 0.251-0.596-0.157-0.597-0.093-0.503 0.313-0.125 0.535 0.347-0.315 0.533-0.093v0.503l0.847-0.189 0.472 0.031 0.816 0.189c0 0 0.723 0.031 0.848 0.031s0.88 0.157 0.88 0.157h0.564l0.283 0.157 0.408-0.063 0.409 0.252h0.627l0.127-0.409v-0.22l0.408 0.188 0.313 0.315 0.189 0.347 0.031-0.409-0.22-0.503c0 0-0.156-0.284-0.283-0.284-0.125 0-0.596-0.157-0.596-0.157l-0.347 0.095-0.344-0.189-0.377 0.159-0.313-0.159-0.125-0.313-0.22-0.095 0.188-0.567 0.565-1.291 0.753-1.259 0.66-0.787 0.251-0.315c0 0 0.315-0.472 0.315-0.597 0-0.127 0.063-1.448 0.063-1.448l-0.408-0.849-0.189-0.693 3.643 0.883h0.22l3.109 2.233 0.44 0.567 0.156 2.171-0.063 0.504-0.22 0.409-0.251 0.251-0.093 0.441-0.127 0.22-0.597 0.095-0.564-0.188-0.347-0.095h-0.659l-0.315 0.251-0.156 0.347 0.031 0.377 0.188-0.347 0.22-0.22 0.189-0.031-0.032 0.315 0.22 0.189 0.533-0.157h0.252l0.031 0.347 0.755 0.093 0.533-0.093 0.408 0.125 0.597 0.157 0.219-0.031 0.189-0.125 0.188 0.597 0.093-0.629-0.156-0.755-0.347-0.284 0.127-0.472-0.283-0.535 0.032-1.983 1.569 1.857 2.073 1.636c0 0 1.413 0.503 1.539 0.503s1.099-0.125 1.099-0.125l0.628-1.037-0.471-1.416 0.188-0.473-1.005-1.32-2.128-2.168-0.509-1.703 0.032-1.165-0.472-1.227-0.533-0.976 0.313-0.975-0.251-1.416-1.071-2.411 0.396-0.067-0.664-1.149 0.431-0.137-0.759-1.236 0.32-0.171-0.569-0.933 0.187-0.104-0.688-0.557 0.251-0.131-1.789-1.253z"></path>
</symbol>
<symbol id="icon-spacex" viewBox="0 0 32 32">
<path fill="#005288" style="fill: var(--color13, #005288)" d="M31.936 9.287c-0.007-0.003-0.012-0.008-0.019-0.008-0.012 0-0.021 0.008-0.031 0.012-20.171 2.031-29.652 10.803-31.887 12.96l0.297 0.467h3.525c9.163-9.211 21.541-12.268 28.087-13.275l0.008 0.003c0.005 0 0.008-0.005 0.013-0.005 0.039-0.008 0.069-0.037 0.069-0.079 0-0.039-0.028-0.065-0.064-0.075zM0.507 14.011l-0.213 0.403 4.327 3.155c0.661-0.398 1.54-0.874 2.436-1.32l0.246-0.111-2.903-2.127zM10.123 18.2c-0.715 0.527-1.445 1.091-2.232 1.751l3.803 2.771h3.943l0.164-0.364z"></path>
</symbol>
<symbol id="icon-x" viewBox="0 0 32 32">
<path d="M24.325 3h4.411l-9.636 11.013 11.336 14.987h-8.876l-6.952-9.089-7.955 9.089h-4.413l10.307-11.78-10.875-14.22h9.101l6.284 8.308zM22.777 26.36h2.444l-15.776-20.859h-2.623z"></path>
</symbol>
<symbol id="icon-mobile" viewBox="0 0 32 32">
<path d="M22 0h-12c-2.209 0-4 1.791-4 4v24c0 2.209 1.791 4 4 4h12c2.209 0 4-1.791 4-4v-24c0-2.209-1.791-4-4-4zM16.5 3h3c0.275 0 0.5 0.224 0.5 0.5s-0.225 0.5-0.5 0.5h-3c-0.276 0-0.5-0.224-0.5-0.5s0.224-0.5 0.5-0.5zM13 2c0.552 0 1 0.448 1 1s-0.448 1-1 1-1-0.448-1-1 0.448-1 1-1zM18 29c0 0.553-0.447 1-1 1h-2c-0.552 0-1-0.447-1-1v-2c0-0.553 0.448-1 1-1h2c0.553 0 1 0.447 1 1v2zM24 23c0 0.553-0.447 1-1 1h-14c-0.552 0-1-0.447-1-1v-16c0-0.552 0.448-1 1-1h14c0.553 0 1 0.448 1 1v16z"></path>
</symbol>
<symbol id="icon-bookmark2" viewBox="0 0 32 32">
<path d="M24 32l-8-11-8 11c-1.104 0-2-0.896-2-2v-28c0-1.104 0.896-2 2-2h16c1.104 0 2 0.896 2 2v28c0 1.104-0.896 2-2 2zM23.5 2h-15c-0.276 0-0.5 0.224-0.5 0.5s0.224 0.5 0.5 0.5h15c0.276 0 0.5-0.224 0.5-0.5s-0.224-0.5-0.5-0.5z"></path>
</symbol>
<symbol id="icon-database1" viewBox="0 0 32 32">
<path d="M16.014 22.082c-0.037 0-0.074 0-0.111 0-8.782 0-15.885-2.133-15.887-3.771l-0.016-6.433c0-0.010 0.004-0.019 0.004-0.027 1.446 0.686 3.145 1.002 4.161 1.191 3.157 0.587 7.327 0.911 11.738 0.911h0.111c4.439-0.005 8.633-0.337 11.813-0.934 1.017-0.191 2.71-0.509 4.157-1.191 0 0.003 0 0.009 0 0.009l0.017 6.433c0.002 1.645-7.153 3.8-15.987 3.812zM16.014 12.016c-0.037 0-0.074 0-0.111 0-8.782 0-15.885-1.946-15.887-3.584l-0.016-5.434c-0.003-1.644 7.156-2.987 15.99-2.998 0.039 0 0.076 0 0.115 0 8.779 0 15.877 1.32 15.879 2.958l0.017 5.434c0.002 1.644-7.153 3.612-15.987 3.624zM15.902 24.020h0.111c4.439-0.006 8.634-0.524 11.813-1.121 1.017-0.191 2.71-0.509 4.158-1.192l0.016 7.296c0.002 1.645-7.153 2.987-15.987 2.998-0.038 0-0.074 0-0.113 0-8.78 0-15.883-1.32-15.885-2.957l-0.015-7.315c1.446 0.687 3.146 1.003 4.164 1.192 3.157 0.588 7.326 1.099 11.738 1.099z"></path>
</symbol>
<symbol id="icon-home1" viewBox="0 0 32 32">
<path d="M32 18.451l-16-12.42-16 12.42v-5.064l16-12.42 16 12.42zM28 18v12h-8v-8h-8v8h-8v-12l12-9z"></path>
</symbol>
<symbol id="icon-play" viewBox="0 0 32 32">
<path d="M30.662 5.003c-4.488-0.645-9.448-1.003-14.662-1.003s-10.174 0.358-14.662 1.003c-0.86 3.366-1.338 7.086-1.338 10.997s0.477 7.63 1.338 10.997c4.489 0.645 9.448 1.003 14.662 1.003s10.174-0.358 14.662-1.003c0.86-3.366 1.338-7.086 1.338-10.997s-0.477-7.63-1.338-10.997zM12 22v-12l10 6-10 6z"></path>
</symbol>
<symbol id="icon-calendar" viewBox="0 0 32 32">
<path d="M10 12h4v4h-4zM16 12h4v4h-4zM22 12h4v4h-4zM4 24h4v4h-4zM10 24h4v4h-4zM16 24h4v4h-4zM10 18h4v4h-4zM16 18h4v4h-4zM22 18h4v4h-4zM4 18h4v4h-4zM26 0v2h-4v-2h-14v2h-4v-2h-4v32h30v-32h-4zM28 30h-26v-22h26v22z"></path>
</symbol>
</defs>
</svg>
